<svg width="800" height="450" viewBox="0 0 800 450" fill="none" xmlns="http://www.w3.org/2000/svg" role="img" aria-label="Crypto &amp; Stocks University">
  <defs>
    <linearGradient id="bg-course-csu" x1="0" y1="0" x2="760" y2="450" gradientUnits="userSpaceOnUse">
      <stop offset="0" stop-color="#FFFFFF"/>
      <stop offset="0.55" stop-color="#FAF7FF"/>
      <stop offset="1" stop-color="#F1EAFD"/>
    </linearGradient>
    <radialGradient id="glow-course-csu" cx="560" cy="150" r="360" gradientUnits="userSpaceOnUse">
      <stop offset="0" stop-color="#C9B4FB" stop-opacity="0.55"/>
      <stop offset="1" stop-color="#C9B4FB" stop-opacity="0"/>
    </radialGradient>
    <radialGradient id="panelglow-course-csu" cx="578.0" cy="104" r="240" gradientUnits="userSpaceOnUse">
      <stop offset="0" stop-color="#F4EEFE" stop-opacity="0.9"/>
      <stop offset="1" stop-color="#FFFFFF" stop-opacity="0"/>
    </radialGradient>
    <linearGradient id="purple-course-csu" x1="0" y1="0" x2="0" y2="1">
      <stop offset="0" stop-color="#8B5CF6"/>
      <stop offset="1" stop-color="#7C3AED"/>
    </linearGradient>
    <linearGradient id="gold-course-csu" x1="0" y1="0" x2="0" y2="1">
      <stop offset="0" stop-color="#FCD877"/>
      <stop offset="0.5" stop-color="#F5B942"/>
      <stop offset="1" stop-color="#E09A1F"/>
    </linearGradient>
    <linearGradient id="green-course-csu" x1="0" y1="0" x2="0" y2="1">
      <stop offset="0" stop-color="#22C55E"/>
      <stop offset="1" stop-color="#118A3D"/>
    </linearGradient>
    <linearGradient id="red-course-csu" x1="0" y1="0" x2="0" y2="1">
      <stop offset="0" stop-color="#F05252"/>
      <stop offset="1" stop-color="#B91C1C"/>
    </linearGradient>
    <filter id="soft-course-csu" x="-30%" y="-30%" width="160%" height="160%">
      <feDropShadow dx="0" dy="14" stdDeviation="22" flood-color="#7C3AED" flood-opacity="0.16"/>
    </filter>
    <filter id="ds-course-csu" x="-40%" y="-40%" width="180%" height="180%">
      <feDropShadow dx="0" dy="6" stdDeviation="9" flood-color="#3B1E78" flood-opacity="0.22"/>
    </filter>
  </defs>

  <!-- bright background -->
  <rect width="800" height="450" fill="url(#bg-course-csu)"/>
  <rect width="800" height="450" fill="url(#glow-course-csu)"/>

  <!-- airy dotted grid -->
  <g fill="#8B5CF6" fill-opacity="0.10">
    <circle cx="70" cy="70" r="2.2"/><circle cx="120" cy="70" r="2.2"/><circle cx="170" cy="70" r="2.2"/><circle cx="220" cy="70" r="2.2"/><circle cx="270" cy="70" r="2.2"/><circle cx="320" cy="70" r="2.2"/><circle cx="370" cy="70" r="2.2"/><circle cx="420" cy="70" r="2.2"/><circle cx="470" cy="70" r="2.2"/><circle cx="520" cy="70" r="2.2"/><circle cx="570" cy="70" r="2.2"/><circle cx="620" cy="70" r="2.2"/><circle cx="670" cy="70" r="2.2"/><circle cx="720" cy="70" r="2.2"/><circle cx="70" cy="120" r="2.2"/><circle cx="120" cy="120" r="2.2"/><circle cx="170" cy="120" r="2.2"/><circle cx="220" cy="120" r="2.2"/><circle cx="270" cy="120" r="2.2"/><circle cx="320" cy="120" r="2.2"/><circle cx="370" cy="120" r="2.2"/><circle cx="420" cy="120" r="2.2"/><circle cx="470" cy="120" r="2.2"/><circle cx="520" cy="120" r="2.2"/><circle cx="570" cy="120" r="2.2"/><circle cx="620" cy="120" r="2.2"/><circle cx="670" cy="120" r="2.2"/><circle cx="720" cy="120" r="2.2"/><circle cx="70" cy="170" r="2.2"/><circle cx="120" cy="170" r="2.2"/><circle cx="170" cy="170" r="2.2"/><circle cx="220" cy="170" r="2.2"/><circle cx="270" cy="170" r="2.2"/><circle cx="320" cy="170" r="2.2"/><circle cx="370" cy="170" r="2.2"/><circle cx="420" cy="170" r="2.2"/><circle cx="470" cy="170" r="2.2"/><circle cx="520" cy="170" r="2.2"/><circle cx="570" cy="170" r="2.2"/><circle cx="620" cy="170" r="2.2"/><circle cx="670" cy="170" r="2.2"/><circle cx="720" cy="170" r="2.2"/><circle cx="70" cy="220" r="2.2"/><circle cx="120" cy="220" r="2.2"/><circle cx="170" cy="220" r="2.2"/><circle cx="220" cy="220" r="2.2"/><circle cx="270" cy="220" r="2.2"/><circle cx="320" cy="220" r="2.2"/><circle cx="370" cy="220" r="2.2"/><circle cx="420" cy="220" r="2.2"/><circle cx="470" cy="220" r="2.2"/><circle cx="520" cy="220" r="2.2"/><circle cx="570" cy="220" r="2.2"/><circle cx="620" cy="220" r="2.2"/><circle cx="670" cy="220" r="2.2"/><circle cx="720" cy="220" r="2.2"/><circle cx="70" cy="270" r="2.2"/><circle cx="120" cy="270" r="2.2"/><circle cx="170" cy="270" r="2.2"/><circle cx="220" cy="270" r="2.2"/><circle cx="270" cy="270" r="2.2"/><circle cx="320" cy="270" r="2.2"/><circle cx="370" cy="270" r="2.2"/><circle cx="420" cy="270" r="2.2"/><circle cx="470" cy="270" r="2.2"/><circle cx="520" cy="270" r="2.2"/><circle cx="570" cy="270" r="2.2"/><circle cx="620" cy="270" r="2.2"/><circle cx="670" cy="270" r="2.2"/><circle cx="720" cy="270" r="2.2"/><circle cx="70" cy="320" r="2.2"/><circle cx="120" cy="320" r="2.2"/><circle cx="170" cy="320" r="2.2"/><circle cx="220" cy="320" r="2.2"/><circle cx="270" cy="320" r="2.2"/><circle cx="320" cy="320" r="2.2"/><circle cx="370" cy="320" r="2.2"/><circle cx="420" cy="320" r="2.2"/><circle cx="470" cy="320" r="2.2"/><circle cx="520" cy="320" r="2.2"/><circle cx="570" cy="320" r="2.2"/><circle cx="620" cy="320" r="2.2"/><circle cx="670" cy="320" r="2.2"/><circle cx="720" cy="320" r="2.2"/><circle cx="70" cy="370" r="2.2"/><circle cx="120" cy="370" r="2.2"/><circle cx="170" cy="370" r="2.2"/><circle cx="220" cy="370" r="2.2"/><circle cx="270" cy="370" r="2.2"/><circle cx="320" cy="370" r="2.2"/><circle cx="370" cy="370" r="2.2"/><circle cx="420" cy="370" r="2.2"/><circle cx="470" cy="370" r="2.2"/><circle cx="520" cy="370" r="2.2"/><circle cx="570" cy="370" r="2.2"/><circle cx="620" cy="370" r="2.2"/><circle cx="670" cy="370" r="2.2"/><circle cx="720" cy="370" r="2.2"/>
  </g>

  <!-- hero panel -->
  <rect x="404" y="64" width="348" height="272" rx="30" fill="#FFFFFF" filter="url(#soft-course-csu)"/><rect x="404" y="64" width="348" height="272" rx="30" fill="none" stroke="#8B5CF6" stroke-opacity="0.22" stroke-width="1.5"/><rect x="404" y="64" width="348" height="272" rx="30" fill="url(#panelglow-course-csu)"/>

  <!-- hero motif -->
  <circle cx="500" cy="184" r="64" fill="#7C3AED" opacity="0.45"/><circle cx="500" cy="178" r="64" fill="url(#purple-course-csu)"/><circle cx="500" cy="178" r="64" fill="none" stroke="#F5B942" stroke-width="4"/><circle cx="500" cy="178" r="50" fill="none" stroke="#FFFFFF" stroke-opacity="0.4" stroke-width="1.5" stroke-dasharray="2 7"/><path d="M500 144 L524 178 L500 212 L476 178 Z" fill="none" stroke="#F5B942" stroke-width="5" stroke-linejoin="round"/><line x1="500" y1="132" x2="500" y2="224" stroke="#F5B942" stroke-width="5" stroke-linecap="round"/><line x1="606" y1="208" x2="606" y2="270" stroke="url(#red-course-csu)" stroke-width="4" stroke-linecap="round"/><rect x="596.0" y="222" width="20" height="34.0" rx="4" fill="url(#red-course-csu)"/><line x1="642" y1="180" x2="642" y2="246" stroke="url(#green-course-csu)" stroke-width="4" stroke-linecap="round"/><rect x="632.0" y="194" width="20" height="38.0" rx="4" fill="url(#green-course-csu)"/><line x1="678" y1="152" x2="678" y2="220" stroke="url(#green-course-csu)" stroke-width="4" stroke-linecap="round"/><rect x="668.0" y="166" width="20" height="40.0" rx="4" fill="url(#green-course-csu)"/><g transform="translate(700,138) scale(0.55)">
      <circle cx="0" cy="0" r="26" fill="url(#green-course-csu)"/>
      <path d="M0 -13 L11 2 L4 2 L4 13 L-4 13 L-4 2 L-11 2 Z" fill="#FFFFFF"/>
    </g><g transform="translate(566,150)"><path d="M0 -16 L4 -4 L16 0 L4 4 L0 16 L-4 4 L-16 0 L-4 -4 Z" fill="#F5B942"/></g>

  <!-- brand mark -->
  <g>
    <path d="M56 78 L70 50 L84 78 Z" fill="url(#purple-course-csu)"/>
    <path d="M62 78 L70 62 L78 78 Z" fill="#FFFFFF" fill-opacity="0.85"/>
    <circle cx="70" cy="48" r="3.4" fill="#F5B942"/>
    <text x="96" y="64" font-family="'Inter','Sora','Segoe UI',system-ui,-apple-system,sans-serif" font-size="15" font-weight="800" fill="#1A1430" letter-spacing="0.5">Summit Teachable</text>
    <text x="96" y="80" font-family="'Inter','Sora','Segoe UI',system-ui,-apple-system,sans-serif" font-size="9.5" font-weight="600" fill="#6E6685" letter-spacing="2.4">TRADING ACADEMY</text>
  </g>

  <!-- eyebrow + title -->
  <g>
    <rect x="56" y="278" width="22" height="22" rx="7" fill="url(#purple-course-csu)"/>
    <text x="86" y="293" font-family="'Inter','Sora','Segoe UI',system-ui,-apple-system,sans-serif" font-size="12.5" font-weight="800" fill="#7C3AED" letter-spacing="2.6">CRYPTO + EQUITIES</text>
  </g>
  <text x="56" y="322" font-family="'Inter','Sora','Segoe UI',system-ui,-apple-system,sans-serif" font-size="33" font-weight="800" fill="#1A1430" letter-spacing="-0.6">Crypto &amp; Stocks</text><text x="56" y="360" font-family="'Inter','Sora','Segoe UI',system-ui,-apple-system,sans-serif" font-size="33" font-weight="800" fill="#1A1430" letter-spacing="-0.6">University</text>
  <rect x="57" y="372" width="62" height="5" rx="2.5" fill="url(#purple-course-csu)"/>
</svg>
