<svg width="800" height="450" viewBox="0 0 800 450" fill="none" xmlns="http://www.w3.org/2000/svg" role="img" aria-label="Bear Market Money">
  <defs>
    <linearGradient id="bg-course-bear-market" x1="0" y1="0" x2="760" y2="450" gradientUnits="userSpaceOnUse">
      <stop offset="0" stop-color="#FFFFFF"/>
      <stop offset="0.55" stop-color="#FAF7FF"/>
      <stop offset="1" stop-color="#F1EAFD"/>
    </linearGradient>
    <radialGradient id="glow-course-bear-market" cx="560" cy="150" r="360" gradientUnits="userSpaceOnUse">
      <stop offset="0" stop-color="#C9B4FB" stop-opacity="0.55"/>
      <stop offset="1" stop-color="#C9B4FB" stop-opacity="0"/>
    </radialGradient>
    <radialGradient id="panelglow-course-bear-market" cx="578.0" cy="104" r="240" gradientUnits="userSpaceOnUse">
      <stop offset="0" stop-color="#F4EEFE" stop-opacity="0.9"/>
      <stop offset="1" stop-color="#FFFFFF" stop-opacity="0"/>
    </radialGradient>
    <linearGradient id="purple-course-bear-market" x1="0" y1="0" x2="0" y2="1">
      <stop offset="0" stop-color="#8B5CF6"/>
      <stop offset="1" stop-color="#7C3AED"/>
    </linearGradient>
    <linearGradient id="gold-course-bear-market" x1="0" y1="0" x2="0" y2="1">
      <stop offset="0" stop-color="#FCD877"/>
      <stop offset="0.5" stop-color="#F5B942"/>
      <stop offset="1" stop-color="#E09A1F"/>
    </linearGradient>
    <linearGradient id="green-course-bear-market" x1="0" y1="0" x2="0" y2="1">
      <stop offset="0" stop-color="#22C55E"/>
      <stop offset="1" stop-color="#118A3D"/>
    </linearGradient>
    <linearGradient id="red-course-bear-market" x1="0" y1="0" x2="0" y2="1">
      <stop offset="0" stop-color="#F05252"/>
      <stop offset="1" stop-color="#B91C1C"/>
    </linearGradient>
    <filter id="soft-course-bear-market" x="-30%" y="-30%" width="160%" height="160%">
      <feDropShadow dx="0" dy="14" stdDeviation="22" flood-color="#7C3AED" flood-opacity="0.16"/>
    </filter>
    <filter id="ds-course-bear-market" x="-40%" y="-40%" width="180%" height="180%">
      <feDropShadow dx="0" dy="6" stdDeviation="9" flood-color="#3B1E78" flood-opacity="0.22"/>
    </filter>
  </defs>

  <!-- bright background -->
  <rect width="800" height="450" fill="url(#bg-course-bear-market)"/>
  <rect width="800" height="450" fill="url(#glow-course-bear-market)"/>

  <!-- airy dotted grid -->
  <g fill="#8B5CF6" fill-opacity="0.10">
    <circle cx="70" cy="70" r="2.2"/><circle cx="120" cy="70" r="2.2"/><circle cx="170" cy="70" r="2.2"/><circle cx="220" cy="70" r="2.2"/><circle cx="270" cy="70" r="2.2"/><circle cx="320" cy="70" r="2.2"/><circle cx="370" cy="70" r="2.2"/><circle cx="420" cy="70" r="2.2"/><circle cx="470" cy="70" r="2.2"/><circle cx="520" cy="70" r="2.2"/><circle cx="570" cy="70" r="2.2"/><circle cx="620" cy="70" r="2.2"/><circle cx="670" cy="70" r="2.2"/><circle cx="720" cy="70" r="2.2"/><circle cx="70" cy="120" r="2.2"/><circle cx="120" cy="120" r="2.2"/><circle cx="170" cy="120" r="2.2"/><circle cx="220" cy="120" r="2.2"/><circle cx="270" cy="120" r="2.2"/><circle cx="320" cy="120" r="2.2"/><circle cx="370" cy="120" r="2.2"/><circle cx="420" cy="120" r="2.2"/><circle cx="470" cy="120" r="2.2"/><circle cx="520" cy="120" r="2.2"/><circle cx="570" cy="120" r="2.2"/><circle cx="620" cy="120" r="2.2"/><circle cx="670" cy="120" r="2.2"/><circle cx="720" cy="120" r="2.2"/><circle cx="70" cy="170" r="2.2"/><circle cx="120" cy="170" r="2.2"/><circle cx="170" cy="170" r="2.2"/><circle cx="220" cy="170" r="2.2"/><circle cx="270" cy="170" r="2.2"/><circle cx="320" cy="170" r="2.2"/><circle cx="370" cy="170" r="2.2"/><circle cx="420" cy="170" r="2.2"/><circle cx="470" cy="170" r="2.2"/><circle cx="520" cy="170" r="2.2"/><circle cx="570" cy="170" r="2.2"/><circle cx="620" cy="170" r="2.2"/><circle cx="670" cy="170" r="2.2"/><circle cx="720" cy="170" r="2.2"/><circle cx="70" cy="220" r="2.2"/><circle cx="120" cy="220" r="2.2"/><circle cx="170" cy="220" r="2.2"/><circle cx="220" cy="220" r="2.2"/><circle cx="270" cy="220" r="2.2"/><circle cx="320" cy="220" r="2.2"/><circle cx="370" cy="220" r="2.2"/><circle cx="420" cy="220" r="2.2"/><circle cx="470" cy="220" r="2.2"/><circle cx="520" cy="220" r="2.2"/><circle cx="570" cy="220" r="2.2"/><circle cx="620" cy="220" r="2.2"/><circle cx="670" cy="220" r="2.2"/><circle cx="720" cy="220" r="2.2"/><circle cx="70" cy="270" r="2.2"/><circle cx="120" cy="270" r="2.2"/><circle cx="170" cy="270" r="2.2"/><circle cx="220" cy="270" r="2.2"/><circle cx="270" cy="270" r="2.2"/><circle cx="320" cy="270" r="2.2"/><circle cx="370" cy="270" r="2.2"/><circle cx="420" cy="270" r="2.2"/><circle cx="470" cy="270" r="2.2"/><circle cx="520" cy="270" r="2.2"/><circle cx="570" cy="270" r="2.2"/><circle cx="620" cy="270" r="2.2"/><circle cx="670" cy="270" r="2.2"/><circle cx="720" cy="270" r="2.2"/><circle cx="70" cy="320" r="2.2"/><circle cx="120" cy="320" r="2.2"/><circle cx="170" cy="320" r="2.2"/><circle cx="220" cy="320" r="2.2"/><circle cx="270" cy="320" r="2.2"/><circle cx="320" cy="320" r="2.2"/><circle cx="370" cy="320" r="2.2"/><circle cx="420" cy="320" r="2.2"/><circle cx="470" cy="320" r="2.2"/><circle cx="520" cy="320" r="2.2"/><circle cx="570" cy="320" r="2.2"/><circle cx="620" cy="320" r="2.2"/><circle cx="670" cy="320" r="2.2"/><circle cx="720" cy="320" r="2.2"/><circle cx="70" cy="370" r="2.2"/><circle cx="120" cy="370" r="2.2"/><circle cx="170" cy="370" r="2.2"/><circle cx="220" cy="370" r="2.2"/><circle cx="270" cy="370" r="2.2"/><circle cx="320" cy="370" r="2.2"/><circle cx="370" cy="370" r="2.2"/><circle cx="420" cy="370" r="2.2"/><circle cx="470" cy="370" r="2.2"/><circle cx="520" cy="370" r="2.2"/><circle cx="570" cy="370" r="2.2"/><circle cx="620" cy="370" r="2.2"/><circle cx="670" cy="370" r="2.2"/><circle cx="720" cy="370" r="2.2"/>
  </g>

  <!-- hero panel -->
  <rect x="404" y="64" width="348" height="272" rx="30" fill="#FFFFFF" filter="url(#soft-course-bear-market)"/><rect x="404" y="64" width="348" height="272" rx="30" fill="none" stroke="#8B5CF6" stroke-opacity="0.22" stroke-width="1.5"/><rect x="404" y="64" width="348" height="272" rx="30" fill="url(#panelglow-course-bear-market)"/>

  <!-- hero motif -->
  <g transform="translate(548,176) scale(1.0)" filter="url(#ds-course-bear-market)">
      <!-- ears -->
      <circle cx="-46" cy="-44" r="22" fill="url(#red-course-bear-market)"/>
      <circle cx="46" cy="-44" r="22" fill="url(#red-course-bear-market)"/>
      <circle cx="-46" cy="-44" r="10" fill="#B91C1C"/>
      <circle cx="46" cy="-44" r="10" fill="#B91C1C"/>
      <!-- head -->
      <path d="M-58 -8 C-58 -52 58 -52 58 -8 C58 44 30 66 0 66 C-30 66 -58 44 -58 -8 Z" fill="url(#red-course-bear-market)"/>
      <!-- snout -->
      <ellipse cx="0" cy="34" rx="30" ry="24" fill="#FBE3E3"/>
      <path d="M-13 24 C-13 14 13 14 13 24 C13 34 0 40 0 40 C0 40 -13 34 -13 24 Z" fill="#B91C1C"/>
      <!-- eyes -->
      <circle cx="-22" cy="-2" r="7" fill="#B91C1C"/>
      <circle cx="22" cy="-2" r="7" fill="#B91C1C"/>
      <circle cx="-20" cy="-4" r="2.6" fill="#FFFFFF"/>
      <circle cx="24" cy="-4" r="2.6" fill="#FFFFFF"/>
    </g><line x1="636" y1="156" x2="636" y2="214" stroke="url(#red-course-bear-market)" stroke-width="4" stroke-linecap="round"/><rect x="626.0" y="170" width="20" height="30.0" rx="4" fill="url(#red-course-bear-market)"/><line x1="672" y1="182" x2="672" y2="242" stroke="url(#red-course-bear-market)" stroke-width="4" stroke-linecap="round"/><rect x="662.0" y="196" width="20" height="32.0" rx="4" fill="url(#red-course-bear-market)"/><line x1="708" y1="210" x2="708" y2="272" stroke="url(#red-course-bear-market)" stroke-width="4" stroke-linecap="round"/><rect x="698.0" y="224" width="20" height="34.0" rx="4" fill="url(#red-course-bear-market)"/><polyline points="628,180 672,212 712,256" fill="none" stroke="#B91C1C" stroke-width="3.5" stroke-dasharray="8 7" stroke-linecap="round" opacity="0.8"/><g transform="translate(622,150) scale(0.55)">
      <circle cx="0" cy="0" r="26" fill="url(#red-course-bear-market)"/>
      <path d="M0 13 L11 -2 L4 -2 L4 -13 L-4 -13 L-4 -2 L-11 -2 Z" fill="#FFFFFF"/>
    </g><polyline points="700,270 720,250 738,232" fill="none" stroke="url(#green-course-bear-market)" stroke-width="4.5" stroke-linecap="round" stroke-linejoin="round"/><g transform="translate(742,224) scale(0.42)">
      <circle cx="0" cy="0" r="26" fill="url(#green-course-bear-market)"/>
      <path d="M0 -13 L11 2 L4 2 L4 13 L-4 13 L-4 2 L-11 2 Z" fill="#FFFFFF"/>
    </g>

  <!-- brand mark -->
  <g>
    <path d="M56 78 L70 50 L84 78 Z" fill="url(#purple-course-bear-market)"/>
    <path d="M62 78 L70 62 L78 78 Z" fill="#FFFFFF" fill-opacity="0.85"/>
    <circle cx="70" cy="48" r="3.4" fill="#F5B942"/>
    <text x="96" y="64" font-family="'Inter','Sora','Segoe UI',system-ui,-apple-system,sans-serif" font-size="15" font-weight="800" fill="#1A1430" letter-spacing="0.5">Summit Teachable</text>
    <text x="96" y="80" font-family="'Inter','Sora','Segoe UI',system-ui,-apple-system,sans-serif" font-size="9.5" font-weight="600" fill="#6E6685" letter-spacing="2.4">TRADING ACADEMY</text>
  </g>

  <!-- eyebrow + title -->
  <g>
    <rect x="56" y="278" width="22" height="22" rx="7" fill="url(#purple-course-bear-market)"/>
    <text x="86" y="293" font-family="'Inter','Sora','Segoe UI',system-ui,-apple-system,sans-serif" font-size="12.5" font-weight="800" fill="#7C3AED" letter-spacing="2.6">RISK-OFF</text>
  </g>
  <text x="56" y="322" font-family="'Inter','Sora','Segoe UI',system-ui,-apple-system,sans-serif" font-size="33" font-weight="800" fill="#1A1430" letter-spacing="-0.6">Bear Market</text><text x="56" y="360" font-family="'Inter','Sora','Segoe UI',system-ui,-apple-system,sans-serif" font-size="33" font-weight="800" fill="#1A1430" letter-spacing="-0.6">Money</text>
  <rect x="57" y="372" width="62" height="5" rx="2.5" fill="url(#purple-course-bear-market)"/>
</svg>
